<?xml version="1.0" standalone="no"?>
<!DOCTYPE svg PUBLIC "-//W3C//DTD SVG 20010904//EN"
 "http://www.w3.org/TR/2001/REC-SVG-20010904/DTD/svg10.dtd">
<svg version="1.0" xmlns="http://www.w3.org/2000/svg"
 width="124.000000pt" height="124.000000pt" viewBox="0 0 124.000000 124.000000"
 preserveAspectRatio="xMidYMid meet">
<metadata>
Created by potrace 1.11, written by Peter Selinger 2001-2013
</metadata>
<g transform="translate(0.000000,124.000000) scale(0.100000,-0.100000)"
fill="#000000" stroke="none">
<path d="M485 1211 c-128 -36 -241 -123 -303 -231 -33 -58 -40 -95 -19 -102 6
-3 87 -6 178 -7 l167 -2 25 78 c72 224 79 253 65 270 -14 17 -39 15 -113 -6z"/>
<path d="M641 1216 c-13 -15 5 -87 68 -286 l18 -55 164 -1 c169 -2 199 4 199
35 0 49 -126 200 -205 246 -97 57 -222 88 -244 61z"/>
<path d="M122 833 c-4 -10 -7 -63 -6 -118 0 -76 5 -114 22 -158 25 -70 69
-141 118 -191 59 -61 64 -56 126 122 31 86 53 163 51 169 -3 7 -42 38 -87 70
-44 31 -102 72 -128 90 -53 37 -85 42 -96 16z"/>
<path d="M947 766 c-65 -46 -125 -90 -133 -98 -14 -14 -11 -28 26 -134 23 -66
47 -134 53 -153 7 -19 20 -39 30 -45 16 -9 26 -3 71 46 92 101 143 241 133
368 -7 82 -14 100 -41 100 -11 -1 -74 -38 -139 -84z"/>
<path d="M472 421 c-71 -55 -132 -107 -135 -115 -4 -11 30 -52 111 -133 65
-65 130 -129 145 -142 l27 -24 140 138 c77 77 140 147 140 156 0 20 -257 219
-282 219 -9 0 -74 -45 -146 -99z"/>
</g>
</svg>
